<svg xmlns="http://www.w3.org/2000/svg" width="251" height="251" viewBox="0 0 251 251"><defs><style>.a,.g{fill:#fff;}.a,.c,.d,.k{stroke:#323433;}.a,.c,.d,.g,.k{stroke-width:2px;}.b,.f{fill:#323433;}.c,.d,.k{fill:none;fill-rule:evenodd;}.d,.k{stroke-linecap:round;}.d{stroke-linejoin:round;}.e{fill:#fafafa;}.f{opacity:0;}.g{stroke:#edefee;}.h{fill:#d8f6e9;}.i{fill:#56bf98;}.j{fill:#81d8b7;}</style></defs><g transform="translate(-789.195 -3253.195)"><g transform="translate(789 3253)"><path class="a" d="M266.161,254.889c0,15.574-9.942,28.169-22.211,28.169-11.053,0-22.211-12.61-22.211-28.169a35.387,35.387,0,0,1,.673-6.888c.166-.829.357-1.648.578-2.442.05-.191.111-.392.171-.6a30.571,30.571,0,0,1,3.572-7.862c4.074-6.335,10.274-10.379,17.217-10.379,9.792,0,18.086,8.038,21.055,19.171a34.759,34.759,0,0,1,1.1,7.033C266.146,253.583,266.161,254.236,266.161,254.889Z" transform="translate(-110.34 -112.818)"/><path class="b" d="M266.1,244.609a14.065,14.065,0,0,0-2.663-.814,12.4,12.4,0,0,0-7.033.819c-2.6,1.03-4.908,2.612-7.666,3.23a13.278,13.278,0,0,1-5.863-.131c-2.326-.558-4.491-1.6-6.757-2.331a18.051,18.051,0,0,0-6.883-1,12.655,12.655,0,0,0-4.587,1.226l.09-.316a30.581,30.581,0,0,1,3.577-7.862c4.019-6.245,10.093-10.264,16.921-10.374h.3a17.674,17.674,0,0,1,3.833.417C256.979,229.11,263.274,235.726,266.1,244.609Z" transform="translate(-111.788 -112.982)"/><path class="b" d="M267.936,329.531c-3.914,4.4-9.068,7.074-14.715,7.074-4.522,0-9.043-2.11-12.851-5.667.633-.884,1.231-1.794,1.748-2.512a18.285,18.285,0,0,0,11.1,4.17,19.17,19.17,0,0,0,13.062-5.4C266.811,327.888,267.363,328.712,267.936,329.531Z" transform="translate(-119.61 -162.818)"/><path class="c" d="M366.6,389.207l-2.17-4.466a77.645,77.645,0,0,0-39.855-37.127l-1.964-.774" transform="translate(-160.534 -172.591)"/><path class="c" d="M248.27,327.18c.5.7,1.07,1.507,1.643,2.341a23.4,23.4,0,0,0,2.864,3.587c3.145,2.839,7.179,2.406,10.887,3.949a54.886,54.886,0,0,1-29.867,8.777c-10.163,0-21.266-2.748-29.676-8.666.417-.216.784-.4,1.241-.618,3.065-1.472,6.677-.869,9.942-1.236a9.4,9.4,0,0,0,4.522-1.572,12.621,12.621,0,0,0,2.512-2.813c.633-.884,1.231-1.794,1.748-2.512.116-.156.221-.3.327-.437" transform="translate(-101.572 -162.808)"/><path class="d" d="M204.05,321.468s2.512-2.7,4.627-2.728,2.9,2.879,2.9,2.879l-4.727,3.135" transform="translate(-101.537 -158.608)"/><path class="a" d="M196.968,319.42,181.64,334.783a3.557,3.557,0,1,0,5.024,5.024l15.408-15.413A20.92,20.92,0,0,1,196.968,319.42Z" transform="translate(-89.803 -158.946)"/><circle class="a" cx="20.422" cy="20.422" r="20.422" transform="translate(103.528 127.828)"/><path class="b" d="M211.574,320.391c.739.814,1.452,1.663,2.236,2.432a6.787,6.787,0,0,0,.97.809c.266.181,1.291.5,1.442.779v-.5c.216-.116.166-.216-.156-.306-.241-.181-.472-.372-.7-.573-.347-.3-.683-.618-1-.934a18.883,18.883,0,0,1-2.06-2.19c-.382-.5-1.2-.07-.869.5a11.264,11.264,0,0,0,4.828,4.521c.578.286,1.085-.583.5-.869a10.279,10.279,0,0,1-4.466-4.165l-.869.5a22.75,22.75,0,0,0,3.23,3.331c.5.417,1.583,1.618,2.291.924.844-.824-.739-1.361-1.221-1.623a15.543,15.543,0,0,1-3.436-3.356c-.437-.5-1.145.231-.713.708Z" transform="translate(-105.173 -158.988)"/><circle class="b" cx="4.15" cy="4.15" r="4.15" transform="translate(120.428 143.88)"/><path class="e" d="M196.694,333.838c-.126-.452-.246-.934-.367-1.417a9.135,9.135,0,0,0-.357-1.859c.176-.362-.08-.442-.266-.924a7.178,7.178,0,0,0-3.441-3.356c-.06,0-.5-.03-.548-.045-1.678-1.171-2.165.5-3.582,1.753a.432.432,0,0,0,0,.673,2.875,2.875,0,0,0-.347.206,4.276,4.276,0,0,0-1.341-.2,1.251,1.251,0,0,0-1.085.623,4.34,4.34,0,0,0-.422,1.653,1.125,1.125,0,0,0-1.542.377,1.266,1.266,0,0,0-1.382,2.04,6.217,6.217,0,0,0,.8.824h-.206a1.145,1.145,0,0,0-.769.266c-.1-.06-.191-.131-.291-.191-1.04-.608-2.447.653-1.718,1.718a.5.5,0,0,0,.06.08c-.739-.03-1.412.111-1.507.864a.7.7,0,0,0,0,.206c-.723-.06-1.593,0-1.854.558a.9.9,0,0,0,.779,1.206c.452.055.759-.824,1.155-1,.206-.085.6,0,.8-.065.216.055.372.528.5.573.849.261,1.683.7,2.512,1.045a.5.5,0,0,0,.543-.08h.025c.437,1.171.633,2.708,1.04,3.878a1.271,1.271,0,0,0,1.894.764,2.66,2.66,0,0,0,.919-3.014,4.175,4.175,0,0,0,1.06,1.276c1,.723,2.437.733,2.859-.593a3.411,3.411,0,0,0-.427-2.482c1.161.663,2.783,1.758,3.733.352.5-.713.116-1.507-.116-2.216-.347-1.075-.678-2.18-1.075-3.245.161.231.311.472.452.718.658,1.171,1.03,2.361,2.371,2.849a1.271,1.271,0,0,0,1.417-.578C197.618,336.1,196.975,334.863,196.694,333.838Z" transform="translate(-87.816 -162.141)"/><path class="d" d="M80,388.337s42.341-49.812,44.567-51.832c2.7-2.447,6.752-9.636,7.506-10.927.548-.934,7.335-1.211,9.073-1.065,2.788.236,6.722,4.627,6.722,4.627l1.7,6.109a1.929,1.929,0,0,1-.859,1.572c-1.291.869-2.783-.055-3.014-1.613l-.417-1.758a1.533,1.533,0,0,0-.528-.849l-2.859-2.386" transform="translate(-39.809 -161.463)"/><path class="d" d="M196.13,340.34l3.266,2.723.538,2.271c.246,1.557,1.738,2.482,3.014,1.613a2.215,2.215,0,0,0,1-1.643l-.5-2.135" transform="translate(-97.596 -169.356)"/><path class="d" d="M189.38,345.34l3.266,2.723.538,2.271c.246,1.557,1.738,2.482,3.014,1.613a1.939,1.939,0,0,0,.859-1.572l-.5-2.562" transform="translate(-94.237 -171.844)"/><path class="d" d="M182.57,350.18l2.984,1.246.538,2.271c.246,1.562,1.738,2.482,3.014,1.613a1.929,1.929,0,0,0,.859-1.572l-.583-2.643" transform="translate(-90.849 -174.253)"/><path class="b" d="M182.023,351.732c1,.116,1.864.327,2.226,1.4.276.829.422,1.713.623,2.562.151.638,1.075.362.97-.266-.231-1.336-.291-2.879-1.623-3.607a15.9,15.9,0,0,0-1.924-.558c-.417-.161-.769-.231-1.11.136a.5.5,0,0,0,.357.854,2.648,2.648,0,0,1,1.442.332,2.763,2.763,0,0,1,.784,1.336,5.2,5.2,0,0,0,1.346,2.01l.708-.708c-.939-.819-1.08-1.969-1.824-2.9a3.073,3.073,0,0,0-2.477-1,.5.5,0,0,0,0,1,2.321,2.321,0,0,1,1.462.367,3.391,3.391,0,0,1,.8,1.336,4.934,4.934,0,0,0,1.326,1.884c.5.422,1.191-.271.708-.708-.944-.869-1-2.06-1.783-3.014a3.144,3.144,0,0,0-2.512-.975l.357.859c-.151.161.573.347.643.357.538.105.944,0,1.407.382.774.613.769,1.954.924,2.849l.97-.266c-.266-1.13-.382-2.6-1.105-3.562a3.64,3.64,0,0,0-2.713-1.14c-.643-.07-.638.939,0,1Z" transform="translate(-90.085 -174.503)"/><path class="b" d="M207.687,319.474a4.586,4.586,0,0,0-1.387.759,5.908,5.908,0,0,1-1.452,1.08.442.442,0,0,0-.065.774.447.447,0,0,0,.231.5c.673.382,1.171-.065,1.618-.553a20.359,20.359,0,0,0,1.608-1.809.5.5,0,0,0-.553-.754Z" transform="translate(-101.803 -158.965)"/><path class="d" d="M166.753,362.04l-18.423,36.4" transform="translate(-73.81 -180.154)"/><path class="b" d="M149.841,396.983,169.58,361.63l-2.763.186L148.5,398.49Z" transform="translate(-73.895 -179.95)"/><path class="b" d="M203.21,343.858a3.86,3.86,0,0,1-.814,2.316,2.033,2.033,0,0,1-2.01.105.5.5,0,0,0-.633.578,3.014,3.014,0,0,1-.934,1.507,2.317,2.317,0,0,1-2.09.04.5.5,0,0,0-.608.578.417.417,0,0,0-.111.236,1.989,1.989,0,0,1-.879,1.638,1.783,1.783,0,0,1-1.854-.246,1.708,1.708,0,0,0-1.085.487c-.3.457-.387.864-.955,1.065a3.356,3.356,0,0,1-1.452.07.5.5,0,0,0-.578.07,1.894,1.894,0,0,1-1.316.467.5.5,0,1,0,0,1,2.929,2.929,0,0,0,1.738-.548,4.21,4.21,0,0,0,2.175-.216c.658-.306.854-.789,1.221-1.356a2.868,2.868,0,0,0,2.346.2,2.783,2.783,0,0,0,1.6-2.346,2.879,2.879,0,0,0,2.326-.246,3.793,3.793,0,0,0,1.326-1.874,2.708,2.708,0,0,0,2.376-.412,3.276,3.276,0,0,0,1.326-2.648C204.275,343.084,203.271,343.22,203.21,343.858Z" transform="translate(-93.247 -170.87)"/><rect class="f" width="251" height="251" transform="translate(0.195 0.195)"/><g transform="translate(0.357 14.131)"><path class="d" d="M348.33,260.776c8.31,1.884,16.956-7.45,22.859-1.924s12.183,32.886,21.854,37.468,21.412-.749,24.532-8.455c.623-1.537,1.964-4.748-1.191-7.9-2.165-2.17-7.119-1.874-7.586-1.874h-1.331a2.565,2.565,0,1,1-.02-5.129h2.763a2.572,2.572,0,1,0,0-5.144h-2.763a2.577,2.577,0,0,1,0-5.155h2.768a2.572,2.572,0,1,0,0-5.144h-2.768a2.577,2.577,0,0,1,0-5.155h2.768a2.572,2.572,0,1,0,0-5.144h-2.768a2.577,2.577,0,0,1,0-5.155h2.768a2.572,2.572,0,0,0,2.572-2.572V229" transform="translate(-173.689 -114.016)"/><path class="d" d="M339.79,288.94a7.983,7.983,0,0,0,1.537,1" transform="translate(-169.439 -143.843)"/><path class="d" d="M292.082,97.361s.075-22.462-.04-32.811c-.08-7.189.749-15.449-4.25-21.146a20.035,20.035,0,0,0-12.56-6.25c-4.707-.613-10.45-.136-14.258,3.11a8.842,8.842,0,0,0-2.818,8.335c1.306,6.531,10.048,10.008,15.469,6.169a8.907,8.907,0,0,0,1-.829c4.019-3.753,4.371-9.545,4.054-14.695-.206-3.346-3.014-9.7-6.119-12.786-2.512-2.512-7.033-5.526-15.68-5.526H244.063l-16.423.05-18.739.055q-9.892.03-19.784.045H169.574q-9.013,0-18.031-.035-7.621,0-15.232-.1c-3.723-.04-7.445-.085-11.163-.191-5.426-.146-11.053-.774-14.816-5.245A15.953,15.953,0,0,1,107,5.635a5.76,5.76,0,0,1,1.588-4.577,4.472,4.472,0,0,1,5.838.337,3.959,3.959,0,0,1,1.251,3.014c-.156,1.688-1.944,2.1-3.366,2.135A8.144,8.144,0,0,1,107,4.821" transform="translate(-53.597 -0.127)"/><rect class="g" width="52.294" height="9.043" transform="translate(83.543 215.984)"/><rect class="g" width="9.942" height="9.043" transform="translate(146.452 215.984)"/><rect class="g" width="59.699" height="9.043" transform="translate(57.082 201.576)"/><rect class="g" width="52.158" height="9.043" transform="translate(166.728 215.984)"/><rect class="g" width="62.186" height="9.043" transform="translate(127.467 201.576)"/><rect class="g" width="46.119" height="9.043" transform="translate(199.811 201.576)"/><rect class="a" width="22.296" height="18.277" transform="translate(227.201 97.234)"/><path class="h" d="M.71,308.51a72.178,72.178,0,0,0,72.178,72.178V345.556A37.051,37.051,0,0,1,35.842,308.51H.71" transform="translate(-0.71 -153.581)"/><rect class="b" width="3.391" height="12.183" transform="translate(231.316 102.801)"/><rect class="b" width="3.391" height="7.651" transform="translate(236.907 107.332)"/><rect class="i" width="3.391" height="3.662" transform="translate(242.494 111.321)"/><rect class="g" width="72.962" height="16.614" transform="translate(101.634 174.597)"/><circle class="j" cx="0.889" cy="0.889" r="0.889" transform="translate(103.472 176.999)"/><circle class="j" cx="0.889" cy="0.889" r="0.889" transform="translate(107.291 176.999)"/><circle class="j" cx="0.889" cy="0.889" r="0.889" transform="translate(111.114 176.999)"/><circle class="j" cx="0.889" cy="0.889" r="0.889" transform="translate(114.937 176.999)"/><circle class="j" cx="0.889" cy="0.889" r="0.889" transform="translate(118.76 176.999)"/><circle class="j" cx="0.889" cy="0.889" r="0.889" transform="translate(122.583 176.999)"/><circle class="j" cx="0.889" cy="0.889" r="0.889" transform="translate(126.407 176.999)"/><circle class="j" cx="0.889" cy="0.889" r="0.889" transform="translate(130.23 176.999)"/><circle class="j" cx="0.889" cy="0.889" r="0.889" transform="translate(134.053 176.999)"/><circle class="j" cx="0.889" cy="0.889" r="0.889" transform="translate(105.608 180.32)"/><circle class="j" cx="0.889" cy="0.889" r="0.889" transform="translate(109.431 180.32)"/><circle class="j" cx="0.889" cy="0.889" r="0.889" transform="translate(113.254 180.32)"/><circle class="j" cx="0.889" cy="0.889" r="0.889" transform="translate(117.072 180.32)"/><circle class="j" cx="0.889" cy="0.889" r="0.889" transform="translate(120.895 180.32)"/><circle class="j" cx="0.889" cy="0.889" r="0.889" transform="translate(124.718 180.32)"/><circle class="j" cx="0.889" cy="0.889" r="0.889" transform="translate(128.542 180.32)"/><circle class="j" cx="0.889" cy="0.889" r="0.889" transform="translate(132.365 180.32)"/><circle class="j" cx="0.889" cy="0.889" r="0.889" transform="translate(136.188 180.32)"/><circle class="j" cx="0.889" cy="0.889" r="0.889" transform="translate(103.472 183.64)"/><circle class="j" cx="0.889" cy="0.889" r="0.889" transform="translate(107.291 183.64)"/><circle class="j" cx="0.889" cy="0.889" r="0.889" transform="translate(111.114 183.64)"/><circle class="j" cx="0.889" cy="0.889" r="0.889" transform="translate(114.937 183.64)"/><circle class="j" cx="0.889" cy="0.889" r="0.889" transform="translate(118.76 183.64)"/><circle class="j" cx="0.889" cy="0.889" r="0.889" transform="translate(122.583 183.64)"/><circle class="j" cx="0.889" cy="0.889" r="0.889" transform="translate(126.407 183.64)"/><circle class="j" cx="0.889" cy="0.889" r="0.889" transform="translate(130.23 183.64)"/><circle class="j" cx="0.889" cy="0.889" r="0.889" transform="translate(134.053 183.64)"/><circle class="j" cx="0.889" cy="0.889" r="0.889" transform="translate(105.608 186.966)"/><circle class="j" cx="0.889" cy="0.889" r="0.889" transform="translate(109.431 186.966)"/><circle class="j" cx="0.889" cy="0.889" r="0.889" transform="translate(113.254 186.966)"/><circle class="j" cx="0.889" cy="0.889" r="0.889" transform="translate(117.072 186.966)"/><circle class="j" cx="0.889" cy="0.889" r="0.889" transform="translate(120.895 186.966)"/><circle class="j" cx="0.889" cy="0.889" r="0.889" transform="translate(124.718 186.966)"/><circle class="j" cx="0.889" cy="0.889" r="0.889" transform="translate(128.542 186.966)"/><circle class="j" cx="0.889" cy="0.889" r="0.889" transform="translate(132.365 186.966)"/><circle class="j" cx="0.889" cy="0.889" r="0.889" transform="translate(136.188 186.966)"/><circle class="j" cx="0.889" cy="0.889" r="0.889" transform="translate(137.133 176.999)"/><circle class="j" cx="0.889" cy="0.889" r="0.889" transform="translate(140.951 176.999)"/><circle class="j" cx="0.889" cy="0.889" r="0.889" transform="translate(144.774 176.999)"/><circle class="j" cx="0.889" cy="0.889" r="0.889" transform="translate(148.597 176.999)"/><circle class="j" cx="0.889" cy="0.889" r="0.889" transform="translate(152.42 176.999)"/><circle class="j" cx="0.889" cy="0.889" r="0.889" transform="translate(156.243 176.999)"/><circle class="j" cx="0.889" cy="0.889" r="0.889" transform="translate(160.067 176.999)"/><circle class="j" cx="0.889" cy="0.889" r="0.889" transform="translate(163.89 176.999)"/><circle class="j" cx="0.889" cy="0.889" r="0.889" transform="translate(167.713 176.999)"/><circle class="j" cx="0.889" cy="0.889" r="0.889" transform="translate(139.268 180.32)"/><circle class="j" cx="0.889" cy="0.889" r="0.889" transform="translate(143.091 180.32)"/><circle class="j" cx="0.889" cy="0.889" r="0.889" transform="translate(146.914 180.32)"/><circle class="j" cx="0.889" cy="0.889" r="0.889" transform="translate(150.732 180.32)"/><circle class="j" cx="0.889" cy="0.889" r="0.889" transform="translate(154.555 180.32)"/><circle class="j" cx="0.889" cy="0.889" r="0.889" transform="translate(158.379 180.32)"/><circle class="j" cx="0.889" cy="0.889" r="0.889" transform="translate(162.202 180.32)"/><circle class="j" cx="0.889" cy="0.889" r="0.889" transform="translate(166.025 180.32)"/><circle class="j" cx="0.889" cy="0.889" r="0.889" transform="translate(169.848 180.32)"/><circle class="j" cx="0.889" cy="0.889" r="0.889" transform="translate(137.133 183.64)"/><circle class="j" cx="0.889" cy="0.889" r="0.889" transform="translate(140.951 183.64)"/><circle class="j" cx="0.889" cy="0.889" r="0.889" transform="translate(144.774 183.64)"/><circle class="j" cx="0.889" cy="0.889" r="0.889" transform="translate(148.597 183.64)"/><circle class="j" cx="0.889" cy="0.889" r="0.889" transform="translate(152.42 183.64)"/><circle class="j" cx="0.889" cy="0.889" r="0.889" transform="translate(156.243 183.64)"/><circle class="j" cx="0.889" cy="0.889" r="0.889" transform="translate(160.067 183.64)"/><circle class="j" cx="0.889" cy="0.889" r="0.889" transform="translate(163.89 183.64)"/><circle class="j" cx="0.889" cy="0.889" r="0.889" transform="translate(167.713 183.64)"/><circle class="j" cx="0.889" cy="0.889" r="0.889" transform="translate(139.268 186.966)"/><circle class="j" cx="0.889" cy="0.889" r="0.889" transform="translate(143.091 186.966)"/><circle class="j" cx="0.889" cy="0.889" r="0.889" transform="translate(146.914 186.966)"/><circle class="j" cx="0.889" cy="0.889" r="0.889" transform="translate(150.732 186.966)"/><circle class="j" cx="0.889" cy="0.889" r="0.889" transform="translate(154.555 186.966)"/><circle class="j" cx="0.889" cy="0.889" r="0.889" transform="translate(158.379 186.966)"/><circle class="j" cx="0.889" cy="0.889" r="0.889" transform="translate(162.202 186.966)"/><circle class="j" cx="0.889" cy="0.889" r="0.889" transform="translate(166.025 186.966)"/><circle class="j" cx="0.889" cy="0.889" r="0.889" transform="translate(169.848 186.966)"/><path class="a" d="M211,16.11h6.531V43.239a3.266,3.266,0,1,1-6.531,0Z" transform="translate(-105.352 -8.08)"/><path class="a" d="M238.53,16.11h6.531V43.239a3.266,3.266,0,1,1-6.531,0Z" transform="translate(-119.051 -8.08)"/><path class="a" d="M285.846,46.424h-18.92a1.507,1.507,0,0,1-1.377-2.1l7.536-17.257-.246-10.957h6.782V27.067l7.536,17.126a1.507,1.507,0,0,1-1.311,2.231Z" transform="translate(-132.436 -8.08)"/><path class="b" d="M211.763,55.933V46.387c.065,0-.06-4.813,0-4.818,1.281-.151,3.014-.2,3.758.854.211.3.327.653.553.939a1.9,1.9,0,0,0,1.482.658V55.928a2.9,2.9,0,1,1-5.793,0Z" transform="translate(-105.724 -20.709)"/><path class="j" d="M245.056,61.105V52.233a1,1,0,0,1-.176-.045c-1.226-.141-2.15-.543-2.813.5-.362.563-.3.909-.879,1.361a1.477,1.477,0,0,1-1.658.151v6.9a2.763,2.763,0,0,0,5.526,0Z" transform="translate(-119.549 -25.936)"/><path class="b" d="M283.31,55.76c-.291-.04-.894.417-1.1.533a13.522,13.522,0,0,1-3.321,1.608,3.321,3.321,0,0,1-2.622-.412,12.414,12.414,0,0,0-2.432-1.507,6.692,6.692,0,0,0-4.431.231l-3.873,8.455a1.035,1.035,0,0,0,.96,1.447h19.829a1.045,1.045,0,0,0,.909-1.552l-1.266-2.889-2.08-4.753-.362-.819a2.7,2.7,0,0,0-.121-.276A.171.171,0,0,0,283.31,55.76Z" transform="translate(-132.447 -27.785)"/><path class="k" d="M208.58,16.11h8.993" transform="translate(-104.148 -8.08)"/><path class="k" d="M236.08,16.11h8.993" transform="translate(-117.832 -8.08)"/><path class="k" d="M278.24,16.11h9" transform="translate(-138.812 -8.08)"/><path class="b" d="M102.842,3.622a2.336,2.336,0,0,1-1-1.11,2.09,2.09,0,0,1,.116-1.552.5.5,0,1,0-.874-.492,3.075,3.075,0,0,0-.186,2.391A3.677,3.677,0,0,0,102.736,4.7Z" transform="translate(-50.483 -0.169)"/></g></g></g></svg>