<svg xmlns="http://www.w3.org/2000/svg" width="263" height="263" viewBox="0 0 263 263"><defs><style>.a{opacity:0.1;}.b,.f,.g,.h,.i{fill:none;}.c{fill:#81d8b7;}.d{fill:#fff;}.d,.f,.h{stroke:#323433;}.d,.f,.h,.i{stroke-width:2px;}.e{fill:#323433;}.f,.g,.h,.i{fill-rule:evenodd;}.h,.i{stroke-linecap:round;stroke-linejoin:round;}.i{stroke:#81d8b7;}</style></defs><g transform="translate(-1029 -1045)"><g transform="translate(0 738)"><g transform="translate(1028 307)"><g transform="translate(1)"><g class="a"><rect class="b" width="263" height="263"/></g><g transform="translate(15 37)"><g transform="translate(0 2)"><path class="c" d="M63.5,110.32a.9.9,0,0,1-.24-1.26.908.908,0,1,1,1.51,1.01.9.9,0,0,1-.76.4A.89.89,0,0,1,63.5,110.32Zm2-3a.9.9,0,0,1-.24-1.26.92.92,0,0,1,1.26-.25.91.91,0,0,1,.25,1.26.9.9,0,0,1-.76.4.89.89,0,0,1-.48-.17Zm2-3a.91.91,0,0,1-.25-1.26.93.93,0,0,1,1.27-.25.91.91,0,0,1,.25,1.26.9.9,0,0,1-.76.4.87.87,0,0,1-.45-.19Zm2-3a.911.911,0,1,1,1.02-1.51.9.9,0,0,1,.24,1.26.727.727,0,0,1-1.17.19Zm2-3a.911.911,0,1,1,1.02-1.51.91.91,0,0,1,.24,1.26.87.87,0,0,1-.75.4.92.92,0,0,1-.39-.23Zm2-3a.981.981,0,0,1,1.17-1.56.91.91,0,0,1,.24,1.26.87.87,0,0,1-.75.4.85.85,0,0,1-.51-.2Zm2-3a.92.92,0,0,1-.24-1.27.91.91,0,0,1,1.26-.24.9.9,0,0,1,.25,1.26.91.91,0,0,1-.76.4,1,1,0,0,1-.34-.27Zm2-3a.911.911,0,0,1,1.02-1.51.9.9,0,0,1,.25,1.26.91.91,0,0,1-.76.4,1,1,0,0,1-.31-.29Zm2-3a.911.911,0,0,1,1.02-1.51.9.9,0,0,1,.25,1.26.93.93,0,0,1-.76.4,1,1,0,0,1-.28-.31Zm2-3a.911.911,0,1,1,1.02-1.51.89.89,0,0,1,.24,1.26.9.9,0,0,1-.75.4,1,1,0,0,1-.25-.33Zm2-3a.911.911,0,1,1,1.02-1.51.912.912,0,0,1-.51,1.66,1,1,0,0,1-.22-.35Zm2-3a.9.9,0,0,1-.25-1.26.92.92,0,0,1,1.27-.24.9.9,0,0,1,.24,1.25.88.88,0,0,1-.75.41.86.86,0,0,1-.19-.39Zm2-3a.912.912,0,0,1,1.01-1.52.9.9,0,0,1,.25,1.26.87.87,0,0,1-.75.4.91.91,0,0,1-.16-.38Zm2-3a.91.91,0,0,1-.24-1.26.92.92,0,0,1,1.26-.25.9.9,0,0,1,.25,1.26.88.88,0,0,1-.76.4.89.89,0,0,1-.14-.42Z"/><path class="c" d="M161.2,110.07a.91.91,0,0,1,.25-1.26.908.908,0,0,1,1.01,1.51.86.86,0,0,1-.5.15A.89.89,0,0,1,161.2,110.07Zm-2-3a.9.9,0,0,1,.25-1.26.911.911,0,0,1,1.02,1.51,1,1,0,0,1-.51.15.93.93,0,0,1-.8-.41Zm-2-3a.9.9,0,0,1,.24-1.26.911.911,0,1,1,1.02,1.51.85.85,0,0,1-.51.15.88.88,0,0,1-.82-.47Zm-2-3a.91.91,0,0,1,.25-1.26.9.9,0,0,1,1.26.24.92.92,0,0,1-.25,1.27.9.9,0,0,1-.51.15.91.91,0,0,1-.86-.47Zm-2-3a.907.907,0,1,1,1.5-1.02.92.92,0,0,1-.24,1.27.86.86,0,0,1-.5.15.88.88,0,0,1-.9-.47Zm-2-3a.9.9,0,0,1,.25-1.26.88.88,0,0,1,1.25.24.91.91,0,0,1-.24,1.27.94.94,0,0,1-.5.15A.93.93,0,0,1,151,95Zm-2-3a.89.89,0,0,1,.24-1.26.92.92,0,0,1,1.27.24.93.93,0,0,1-.25,1.27.87.87,0,0,1-.51.15A.9.9,0,0,1,149,92Zm-2-3a.9.9,0,0,1,.24-1.26.91.91,0,0,1,1.27.24.9.9,0,0,1-.25,1.26.86.86,0,0,1-.51.16A.92.92,0,0,1,147,89Zm-2-3a.92.92,0,0,1,.25-1.27.91.91,0,0,1,1.26.25.9.9,0,0,1-.25,1.26.85.85,0,0,1-.5.16.9.9,0,0,1-1.05-.47Zm-2-3a.92.92,0,0,1,.25-1.27.911.911,0,0,1,1.02,1.51,1.2,1.2,0,0,1-1.6-.37Zm-2-3a.92.92,0,0,1,.25-1.27.9.9,0,0,1,1.25.25.89.89,0,0,1-.24,1.26.87.87,0,0,1-.5.16.93.93,0,0,1-1.12-.55Zm-2-3a.907.907,0,1,1,1.5-1.02.9.9,0,0,1-.24,1.26,1,1,0,0,1-.51.16.92.92,0,0,1-1.14-.56Zm-2-3a.911.911,0,1,1,1.51-1.02.9.9,0,0,1-.25,1.26.86.86,0,0,1-.51.16.9.9,0,0,1-1.18-.58Zm-2-3a.92.92,0,0,1,.25-1.27.911.911,0,0,1,1.02,1.51,1,1,0,0,1-.51.16.94.94,0,0,1-1.23-.59Z"/><path class="c" d="M137.64,145.74a.91.91,0,1,1,.91.91A.91.91,0,0,1,137.64,145.74Zm-3.64,0a.91.91,0,1,1,.91.91A.91.91,0,0,1,134,145.74Zm-3.64,0a.91.91,0,1,1,.91.91A.91.91,0,0,1,130.36,145.74Zm-3.63,0a.91.91,0,0,1,.91-.91.91.91,0,0,1,0,1.82.91.91,0,0,1-.91-.91Zm-3.64,0a.91.91,0,1,1,.91.91A.91.91,0,0,1,123.09,145.74Zm-3.64,0a.91.91,0,1,1,.91.91A.91.91,0,0,1,119.45,145.74Zm-3.64,0a.91.91,0,1,1,.91.91A.91.91,0,0,1,115.81,145.74Zm-3.64,0a.91.91,0,1,1,.267.643A.91.91,0,0,1,112.17,145.74Zm-3.64,0a.91.91,0,1,1,.91.91A.91.91,0,0,1,108.53,145.74Zm-3.64,0a.91.91,0,1,1,.91.91A.91.91,0,0,1,104.89,145.74Zm-3.64,0a.91.91,0,1,1,.91.91A.91.91,0,0,1,101.25,145.74Zm-3.63,0a.91.91,0,1,1,.91.91A.91.91,0,0,1,97.62,145.74Zm-3.64,0a.9.9,0,1,0,.02,0Zm-3.64,0a.91.91,0,1,1,.91.91A.91.91,0,0,1,90.34,145.74Zm-3.64,0a.91.91,0,1,1,.91.91A.91.91,0,0,1,86.7,145.74Zm-3.64,0a.91.91,0,1,1,.91.91A.91.91,0,0,1,83.06,145.74Z"/><path class="c" d="M145.73,16a.91.91,0,0,1,.24-1.26.9.9,0,0,1,1.26.23.9.9,0,0,1-.75,1.42A.9.9,0,0,1,145.73,16Zm3-2.06a.92.92,0,0,1,.24-1.27.91.91,0,0,1,1.03,1.5.948.948,0,0,1-1.27-.17Zm3-2.06a.91.91,0,0,1,.23-1.27.92.92,0,0,1,1.26.23.9.9,0,0,1-.22,1.27.93.93,0,0,1-.52.16.9.9,0,0,1-.75-.37Zm3-2.06a.9.9,0,0,1,.23-1.27.92.92,0,0,1,1.27.24.91.91,0,0,1-.24,1.26.88.88,0,0,1-.51.16.91.91,0,0,1-.75-.37Zm3-2.07a.9.9,0,0,1,.23-1.26A.917.917,0,0,1,159,8a.87.87,0,0,1-.52.16.86.86,0,0,1-.75-.39Zm3-2.05a.92.92,0,0,1,.24-1.27.9.9,0,0,1,1.26.23.89.89,0,0,1-.24,1.26.86.86,0,0,1-.5.17.93.93,0,0,1-.77-.37Zm3-2.07a.9.9,0,0,1,.24-1.26.89.89,0,0,1,1.26.23A.92.92,0,0,1,165,3.87a.91.91,0,0,1-.52.16.92.92,0,0,1-.76-.38Zm3-2a.92.92,0,0,1,.24-1.27.909.909,0,1,1,1.04,1.49.914.914,0,0,1-1.3-.25Z"/><path class="c" d="M76.83,16.26A.93.93,0,0,1,76.59,15a.92.92,0,0,1,1.27-.23.907.907,0,0,1-1.03,1.49Zm-3-2.07a.9.9,0,0,1-.23-1.26.91.91,0,0,1,1.27-.24A.92.92,0,0,1,75.09,14a.827.827,0,0,1-1.26.19Zm-3-2.06a.9.9,0,1,1,1.02-1.49.9.9,0,0,1,.24,1.26.89.89,0,0,1-.76.39.85.85,0,0,1-.49-.16Zm-3-2.06a.91.91,0,0,1,1.03-1.5.91.91,0,0,1,.24,1.27.94.94,0,0,1-.75.39A.91.91,0,0,1,67.83,10.07Zm-3-2.06a.91.91,0,0,1-.23-1.27.92.92,0,0,1,1.27-.23.909.909,0,0,1-.52,1.66A1,1,0,0,1,64.83,8Zm-3-2.06a.92.92,0,0,1-.24-1.27.91.91,0,0,1,1.27-.23.911.911,0,0,1-.52,1.66.93.93,0,0,1-.5-.11Zm-3-2.06a.91.91,0,0,1-.23-1.27.89.89,0,0,1,1.26-.23.9.9,0,0,1,.23,1.26.88.88,0,0,1-.74.4.89.89,0,0,1-.51-.16Zm-3-2.07A.9.9,0,0,1,55.6.56.91.91,0,0,1,56.86.32.93.93,0,0,1,57.1,1.6a.94.94,0,0,1-.76.39.92.92,0,0,1-.5-.17Z"/><path class="c" d="M8.33,123.72a.912.912,0,0,1,1.29-1.29.91.91,0,0,1,0,1.29A.93.93,0,0,1,9,124,.94.94,0,0,1,8.33,123.72Zm-2.57-2.58a.89.89,0,0,1,0-1.28.92.92,0,0,1,1.29,0,.91.91,0,0,1,0,1.28.87.87,0,0,1-.65.27A.88.88,0,0,1,5.76,121.14Zm-2.57-2.57a.91.91,0,0,1,0-1.28.91.91,0,1,1,0,1.28ZM.62,116a.909.909,0,0,1,1.28-1.29.92.92,0,0,1,0,1.29.894.894,0,0,1-1.28,0Z"/><path class="c" d="M.62,176.46a.89.89,0,0,1,0-1.28.89.89,0,0,1,1.28,0,.91.91,0,0,1,0,1.28.9.9,0,0,1-.64.28A.9.9,0,0,1,.62,176.46Zm2.57-2.56a.92.92,0,0,1,0-1.29.89.89,0,0,1,1.28,0,.91.91,0,0,1,0,1.29.918.918,0,0,1-1.28,0Zm2.57-2.58a.91.91,0,0,1,0-1.29.912.912,0,0,1,1.29,1.29.91.91,0,0,1-.65.27A.92.92,0,0,1,5.76,171.32Zm2.57-2.57a.91.91,0,0,1,0-1.28.909.909,0,1,1,1.29,1.28A.93.93,0,0,1,9,169,.94.94,0,0,1,8.33,168.75Z"/><path class="c" d="M230.83,145.74a.9.9,0,0,1,.9-.91.91.91,0,1,1,0,1.82.9.9,0,0,1-.9-.91Zm-3.65,0a.91.91,0,0,1,.91-.91.91.91,0,1,1,0,1.82A.91.91,0,0,1,227.18,145.74Zm-3.64,0a.92.92,0,0,1,.92-.91.91.91,0,0,1,0,1.82A.92.92,0,0,1,223.54,145.74Zm-3.63,0a.91.91,0,1,1,.91.91A.91.91,0,0,1,219.91,145.74Z"/></g><g transform="translate(9 109)"><circle class="d" cx="33.93" cy="33.93" r="33.93" transform="translate(0.62 3.7)"/><circle class="e" cx="10.21" cy="10.21" r="10.21" transform="translate(23.35 0.75)"/><path class="f" d="M34.55,71.57a33.72,33.72,0,0,0,19.17-5.95A85.269,85.269,0,0,0,44.46,62,65.19,65.19,0,0,1,42,55.7s-4.73,2.52-7.28,2.52A11.55,11.55,0,0,1,28.29,56l-.23.45a40.86,40.86,0,0,1-1.2,4.83A41.44,41.44,0,0,0,14.6,65.09,33.75,33.75,0,0,0,34.55,71.57Z"/><path class="e" d="M27.87,58.53c4.17,2.06,10.58,2.07,14.26-1l-1.41-1.42c-2.47,3.08-8.64,2.39-12,1.61l-.53,1.93c4.82.86,9.77,1.47,14.11-1.27,1.09-.69.09-2.42-1-1.73-3.87,2.45-8.28,1.83-12.57,1.07-1.25-.22-1.8,1.63-.53,1.93,4.07,1,11,1.59,13.94-2.12a1,1,0,1,0-1.41-1.42c-2.89,2.4-8.61,2.27-11.84.68-1.15-.57-2.17,1.15-1,1.72Z"/><path class="f" d="M26.86,61.27s4.56,3.19,9.16,2.9a17.56,17.56,0,0,0,8.3-2.38"/><path class="f" d="M16.58,33.79c0-10.2,4.63-19.84,17.12-19.84,11.62,0,17,9.82,17,20S44.22,58.07,35.18,58.07,16.58,44,16.58,33.79Z"/><path class="e" d="M33.7,14c-12.49,0-17.12,9.64-17.12,19.84a23,23,0,0,0,1,6.22l.75,1s-2.38-9.33-.72-9.37c4.59-.12,6.86-6.72,6.86-6.72A13.17,13.17,0,0,0,32.49,28c3.69,0,6-3.29,8.41-3.35,7.28-.17,9.34,8.62,8.61,13.19-.07.42.71-.3.89-.11a26.27,26.27,0,0,0,.29-3.78C50.69,23.77,45.32,14,33.7,14Z"/></g><circle class="d" cx="33.93" cy="33.93" r="33.93" transform="translate(146.4 112.4)"/><path class="g" d="M184.89,162.57s1-6.59.57-8.07"/><path class="g" d="M167.38,158.78c1-1.21,2-5.25,2-7.28-.16-4.24-3.73-12.35-3.73-12.35a15.25,15.25,0,0,1,.54-13c2.58-4.9,5.61-6.82,12.89-7.64,8.29-.94,16.19,4.16,18,8.3,1.6,3.64,1.51,8.87.2,15.19-1.36,6.54-4.2,13-9,12.71-3.88-.23-4.6-1.2-7-3.93"/><path class="e" d="M173.07,129.12c-.25-.41,1,4.35.75,7.59a13.88,13.88,0,0,1-1.88,5.54,11.94,11.94,0,0,1-3.47,3.58l-1.82-4.5-1-2.64a15.23,15.23,0,0,1,.54-13c2.58-4.9,5.33-7.17,12.61-8,8.28-.94,16.47,4.5,18.28,8.65,1.09,2.48,1.85,1,1.52,4.81-.11,0-1.4,4.05-8.76,4.09C177.64,135.35,173.56,130,173.07,129.12Z"/><ellipse class="e" cx="6.81" cy="9.25" rx="6.81" ry="9.25" transform="translate(149.981 131.093) rotate(-23.48)"/><path class="g" d="M167.38,158.78c.26.28,6.93,4.07,6.93,4.07l8.49.15,2.09-.43.57-8.07L183,148.14"/><path class="f" d="M184.89,162.57s1-6.59.57-8.07"/><path class="h" d="M167.38,158.78c1-1.21,2-5.25,2-7.28-.16-4.24-3.73-12.35-3.73-12.35a15.25,15.25,0,0,1,.54-13c2.58-4.9,5.61-6.82,12.89-7.64,8.29-.94,16.19,4.16,18,8.3,1.6,3.64,1.76,9,.45,15.34-1.37,6.54-4.45,12.84-9.28,12.56-3.88-.23-4.6-1.2-7-3.93"/><path class="f" d="M150.28,162.4a33.59,33.59,0,0,0,51.3,10.42c0-.21-3.75-11-9.83-11.33s-7.15,2.87-14.5,2c-6.87-.82-9.88-5.63-13.3-5.85-3-.2-14.33,3.07-14.33,3.07Z"/><path class="e" d="M180.35,151.15A22.379,22.379,0,0,0,182.6,156a17.6,17.6,0,0,0,2.64,2.7l.15-4.32-4.95-4Z"/><circle class="d" cx="33.93" cy="33.93" r="33.93" transform="translate(77.94 0.44)"/><path class="g" d="M99.82,48.23l4.26,2.92s6.14,1,6.59,1a27.43,27.43,0,0,0,3.51-1.43s.54-7.92.86-8.61l-.39-.76s-2.56-3.18-2.76-3.3c2.9,1.17,3.55,5.78,7.42,6.14,4.13.37,8.16-7.87,9.53-14.41,1.31-6.32,1.39-11.55-.2-15.19-1.82-4.14-9.72-9.24-18-8.3-7.27.82-10.31,2.74-12.88,7.64a15.26,15.26,0,0,0-.55,13l3.73,9.62a8.52,8.52,0,0,1,.32,4.23c-.49,1.78-1.13,5.89-1.43,7.45"/><path class="e" d="M110.35,6c-7.27.83-10,3.09-12.6,8a15.26,15.26,0,0,0-.55,13l1,2.64,2.6,6.81a10.92,10.92,0,0,0,3.25-6.87c.07-2.17-2-8.59,2.28-8.75,2.2-.09,2,4.21,6.45,4.65,3.49.35,4.84-3.34,5.11-4.88.24-1.3,1.05-1.4,1.3-1.4a.28.28,0,0,1,.13,0l10,4.9.33.06a20.3,20.3,0,0,0-1.05-9.51C126.82,10.47,118.64,5,110.35,6Z"/><path class="f" d="M81.87,50.18a33.91,33.91,0,0,0,51.27,10.7v-.32s-6.07-11.64-12.16-12-5.68,4.56-13,3.67c-6.86-.82-10.45-7-13.87-7.26-3-.19-11.93,4.8-11.93,4.8Z"/><path class="f" d="M114.18,50.74s.54-7.92.86-8.61"/><path class="h" d="M99.82,48.23c.3-1.56.94-5.67,1.43-7.45a8.52,8.52,0,0,0-.32-4.23L97.2,26.93a15.26,15.26,0,0,1,.55-13c2.57-4.9,5.61-6.82,12.88-7.64,8.29-.94,16.19,4.16,18,8.3,1.59,3.64,1.51,8.87.2,15.19-1.37,6.54-5.4,14.78-9.53,14.41-3.87-.36-4.52-5-7.42-6.14.2.12,2.76,3.3,2.76,3.3"/><path class="e" d="M111,38.26s.69,2.64,1,3.44a9.08,9.08,0,0,0,1.34,2.59c.19.21,1.08,1.12,1.08,1.12l.91-3.41A31.21,31.21,0,0,0,113,38.59,13,13,0,0,0,111,38.26Z"/><g transform="translate(27 75)"><path class="d" d="M24,16.25V.67H.38V16.25H4.66v3.23a.9.9,0,0,0,1.53.64l3.87-3.87Z"/><path class="i" d="M4.42,5.9H18.37"/><path class="i" d="M4.42,10H15.18"/><rect class="e" width="2.46" height="1.21" transform="translate(2.2 16.25)"/><path class="e" d="M24,1.88V16.25H10.06L6.48,19.83v.86a.89.89,0,0,0,.56.83.87.87,0,0,0,1-.19l3.87-3.86H25.77V1.88Z"/></g><g transform="translate(168 37)"><path class="d" d="M.68,15.82V.24H24.25V15.82H20v3.23a.9.9,0,0,1-.56.83.88.88,0,0,1-1-.2l-3.87-3.86Z"/><path class="i" d="M19.73,5.77H5.78"/><path class="i" d="M19.73,9.87H8.97"/><path class="e" d="M2.5,15.82v1.82H16.39l-1.82-1.82Z"/><path class="e" d="M24.25,2.06V15.82H20v3.23a.9.9,0,0,1-.56.83.88.88,0,0,1-1-.2l1.81,1.82a.9.9,0,0,0,1.54-.63V17.64h4.28V2.06Z"/></g></g></g></g></g></g></svg>