<svg xmlns="http://www.w3.org/2000/svg" width="263" height="263" viewBox="0 0 263 263"><defs><style>.a{opacity:0.1;}.b,.d,.i,.j,.k{fill:none;}.c,.h{fill:#fff;}.c,.d,.g,.i,.j,.k{stroke:#323433;stroke-width:2px;}.d,.g,.i,.k{stroke-linecap:round;}.d,.i,.j{fill-rule:evenodd;}.e{fill:#81d8b7;}.f,.g{fill:#323433;}.i{stroke-linejoin:round;}</style></defs><g transform="translate(-151 -1045)"><g transform="translate(0 738)"><g transform="translate(150 307)"><g transform="translate(1)"><g class="a"><rect class="b" width="263" height="263"/></g><g transform="translate(1 32)"><g transform="translate(0 78)"><path class="c" d="M96.66,102.3H13A12.15,12.15,0,1,1,13,78H176.47c-2.4.07-4.58,1.7-6.17,3.77a14.5,14.5,0,0,0,0,16.74c1.59,2.08,3.77,3.71,6.17,3.78H114.18"/><path class="d" d="M4.96,80.98,79.71,0"/></g><g transform="translate(204 22)"><rect class="c" width="19.62" height="19.62" transform="translate(0.82 0.62)"/><path class="e" d="M1.75,12.72v6.59H7.86Q4.86,15.91,1.75,12.72Z"/></g><g transform="translate(228 92)"><rect class="c" width="29.7" height="18.82" transform="translate(31.45 9.418) rotate(117.66)"/><path class="f" d="M32.19,12.04,18.4,38.34,1.73,29.62l.51-.99L17.86,36.8,31.13,11.49Z"/><path class="e" d="M17.9,33.28l-.63,1.2-15-7.87L13.13,5.87A196.25,196.25,0,0,1,17.9,33.28Z"/><circle class="f" cx="1.35" cy="1.35" r="1.35" transform="translate(9.68 25.9)"/></g><g transform="translate(149 85)"><path class="g" d="M29.99,28.21,2.7,43.97,14.22.92Z"/><path class="g" d="M21.37,25.91,12.72,30.9l3.66-13.65Z"/><path class="h" d="M27.48,27.33.19,43.09,11.71.05Z"/><path class="e" d="M3.87,32.03l1.02.28"/><path class="e" d="M5.68,25.26l1.02.27"/><path class="e" d="M7.5,18.48l1.02.28"/><path class="e" d="M9.31,11.71l1.02.28"/><path class="e" d="M11.71.05.19,43.1,27.48,27.33Zm2.15,16.33,5,8.65-8.65,5Z"/><path class="i" d="M3.87,32.03l1.02.28"/><path class="i" d="M5.68,25.26l1.02.27"/><path class="i" d="M7.5,18.48l1.02.28"/><path class="i" d="M9.31,11.71l1.02.28"/><path class="j" d="M.19,43.09,27.47,27.33,11.71.05Z"/><path class="j" d="M18.86,25.03l-8.65,5,3.66-13.65Z"/></g><g transform="translate(81)"><path class="g" d="M8.15.44,21.61,4.83,4.1,12.87Z"/><path class="c" d="M4.81,1.05,18.19,5.69.52,13.4Z"/></g><g transform="translate(21 51)"><rect class="c" width="83.34" height="52.8" transform="translate(0.99 0.58)"/><path class="g" d="M86.51,55.57H3.17V53.38l81.21-.08L84.3,5.42l2.21-.08Z"/><path class="e" d="M83.39,52.45V1.52h-.05L36.02,52.45Z"/><circle class="k" cx="3.04" cy="3.04" r="3.04" transform="translate(71.45 25.11)"/></g><g transform="translate(97 156)"><path class="c" d="M16.3,0V39.02l-8-6.14L.13,39.19.19.01Z"/><path class="f" d="M16.3.31V39.02l-8-6.14-5.82,4.5-.02.03v5.15l8.18-6.31,8,6.13V.37Z"/></g></g></g></g></g></g></svg>